<svg width="24" height="25" viewBox="0 0 24 25" fill="none" xmlns="http://www.w3.org/2000/svg">
<path d="M4.11356 10.7462L11.9999 6.08778L19.8862 10.7462C19.9636 10.792 20.0488 10.8137 20.1329 10.8137C20.2992 10.8137 20.4612 10.7284 20.5519 10.575C20.6886 10.3439 20.6119 10.0459 20.3805 9.9093L12.2472 5.10481C12.0946 5.01495 11.9055 5.01495 11.7529 5.10481L3.61932 9.9093C3.38825 10.0459 3.31153 10.3439 3.44785 10.575C3.58448 10.8061 3.88249 10.8828 4.11356 10.7462Z" fill="#0898A0"/>
<path d="M20.1336 19.1765H3.86635C3.59799 19.1765 3.38037 19.3941 3.38037 19.6625C3.38037 19.9309 3.59799 20.1485 3.86635 20.1485H20.1336C20.4019 20.1485 20.6196 19.9309 20.6196 19.6625C20.6196 19.3938 20.4019 19.1765 20.1336 19.1765Z" fill="#0898A0"/>
<path d="M8.26718 11.4946C8.53554 11.4946 8.75317 11.277 8.75317 11.0086C8.75317 10.7403 8.53554 10.5226 8.26718 10.5226H6.6393C6.37094 10.5226 6.15332 10.7403 6.15332 11.0086C6.15332 11.277 6.37094 11.4946 6.6393 11.4946H6.96726V17.3539H6.6393C6.37094 17.3539 6.15332 17.5715 6.15332 17.8399C6.15332 18.1082 6.37094 18.3259 6.6393 18.3259H8.26718C8.53554 18.3259 8.75317 18.1082 8.75317 17.8399C8.75317 17.5715 8.53554 17.3539 8.26718 17.3539H7.93922V11.4946H8.26718Z" fill="#0898A0"/>
<path d="M12.8136 11.4883C13.0819 11.4883 13.2996 11.2707 13.2996 11.0023C13.2996 10.734 13.0819 10.5164 12.8136 10.5164H11.1857C10.9173 10.5164 10.6997 10.734 10.6997 11.0023C10.6997 11.2707 10.9173 11.4883 11.1857 11.4883H11.5136V17.3476H11.1857C10.9173 17.3476 10.6997 17.5652 10.6997 17.8336C10.6997 18.1019 10.9173 18.3196 11.1857 18.3196H12.8136C13.0819 18.3196 13.2996 18.1019 13.2996 17.8336C13.2996 17.5652 13.0819 17.3476 12.8136 17.3476H12.4856V11.4883H12.8136V11.4883Z" fill="#0898A0"/>
<path d="M17.3604 11.4816C17.6288 11.4816 17.8464 11.264 17.8464 10.9956C17.8464 10.7273 17.6288 10.5096 17.3604 10.5096H15.7326C15.4642 10.5096 15.2466 10.7273 15.2466 10.9956C15.2466 11.264 15.4642 11.4816 15.7326 11.4816H16.0605V17.3409H15.7326C15.4642 17.3409 15.2466 17.5585 15.2466 17.8269C15.2466 18.0952 15.4642 18.3128 15.7326 18.3128H17.3604C17.6288 18.3128 17.8464 18.0952 17.8464 17.8269C17.8464 17.5585 17.6288 17.3409 17.3604 17.3409H17.0325V11.4816H17.3604V11.4816Z" fill="#0898A0"/>
</svg>
