<svg width="24" height="25" viewBox="0 0 24 25" fill="none" xmlns="http://www.w3.org/2000/svg">
<path fill-rule="evenodd" clip-rule="evenodd" d="M14.6428 6.90231L15.3363 4.12064L15.156 4.07571L14.465 6.84744L13.6889 6.65403C13.2422 6.54272 12.7818 6.43731 12.3159 6.33099L11.5202 6.14937L12.22 3.34368L12.0405 3.29892L11.3342 6.129L10.5701 5.95497C10.1934 5.86917 9.81612 5.7827 9.44821 5.69123L8.69117 5.503L8.69331 5.49335L7.83629 5.27936L7.76468 5.56688C7.87457 5.59351 7.97997 5.61957 8.06619 5.64188C8.1264 5.65745 8.18704 5.6737 8.23543 5.68827C8.2526 5.69344 8.28614 5.70367 8.32281 5.71757C8.79583 5.85158 9.16709 6.1067 9.40137 6.47587C9.63758 6.84811 9.67362 7.24094 9.65715 7.52683L9.65283 7.60162L8.82629 10.9174L8.28749 10.7831L8.28358 10.7952L8.82331 10.9298L7.67669 15.5268L7.65596 15.5782C7.58361 15.7579 7.43362 16.0447 7.1373 16.259C6.82511 16.4847 6.43172 16.5708 6.00448 16.4848C5.96518 16.4796 5.92793 16.4721 5.90867 16.4681C5.86187 16.4584 5.80282 16.4447 5.74265 16.4301C5.62538 16.4018 5.47269 16.3632 5.32128 16.3242L5.1096 16.8123L6.44852 17.146C6.70205 17.2096 6.96079 17.277 7.21132 17.3423C7.37464 17.3849 7.53487 17.4267 7.68883 17.4661L8.4587 17.6633L7.74279 20.5378L7.92143 20.5824L8.63565 17.7176L9.42386 17.9315C9.89045 18.0581 10.3438 18.1751 10.7881 18.2855L11.5654 18.4785L10.8575 21.3146L11.0378 21.3595L11.7441 18.5288L12.4862 18.6692C13.9366 18.9437 15.0688 18.9936 15.9156 18.7331C16.6899 18.4948 17.3019 17.9737 17.6945 16.8521C18.0269 15.903 17.9794 15.2737 17.7863 14.8325C17.5884 14.3806 17.1748 13.981 16.4879 13.6234L14.5639 12.6217L16.6776 12.1342C17.1225 12.0316 17.465 11.8463 17.7177 11.5752C17.9697 11.3049 18.1837 10.8942 18.2786 10.2525L19.07 10.3695C18.9109 11.4447 18.4465 12.1322 17.7948 12.5379C17.5139 12.7127 17.1983 12.8351 16.8574 12.9138C17.1788 13.0811 17.4676 13.2669 17.7169 13.4755C18.6732 14.2754 19.0474 15.4094 18.4496 17.1163C17.5143 19.7889 15.2924 20.0144 12.3375 19.4552L11.6204 22.3292L9.88753 21.8973L10.5952 19.062C10.5394 19.0481 10.4835 19.0341 10.4274 19.02C10.282 18.9835 10.1355 18.9463 9.9878 18.9082C9.73376 18.8427 9.47616 18.7746 9.21432 18.7036L8.50411 21.5523L6.77325 21.1205L7.49036 18.2411C7.32859 18.1997 7.1658 18.1572 7.00186 18.1145C6.75565 18.0503 6.50684 17.9854 6.25502 17.9223L4 17.3601L4.86026 15.3766C4.86026 15.3766 4.89387 15.3855 4.9501 15.4004C5.03885 15.4238 5.18395 15.4621 5.34226 15.5032C5.68332 15.592 6.08567 15.6944 6.11789 15.6923C6.11865 15.6922 6.1192 15.6921 6.11955 15.6919C6.12 15.6917 6.12009 15.6914 6.11979 15.691C6.53044 15.7926 6.74985 15.5851 6.86081 15.3897C6.88241 15.3516 6.8999 15.3141 6.9139 15.2793L8.04709 10.7362C8.08957 10.7464 8.13116 10.7569 8.1713 10.7669C8.19132 10.772 8.21098 10.7769 8.2302 10.7816C8.1611 10.754 8.09841 10.7362 8.05004 10.7239L8.05038 10.7225L8.85847 7.4808C8.8691 7.29646 8.84261 7.088 8.72543 6.90378C8.60856 6.72006 8.40148 6.56047 8.05104 6.47298C8.05148 6.47268 8.05157 6.4723 8.05132 6.47185C8.05102 6.47132 8.05024 6.4707 8.04902 6.46998C8.02418 6.4554 7.81339 6.4018 7.57133 6.34318C7.47483 6.31981 7.37337 6.29565 7.27673 6.27283C7.17906 6.24978 7.08633 6.22811 7.00865 6.21004C6.8799 6.1801 6.7925 6.16007 6.7925 6.16007L7.25347 4.30927L9.64321 4.90597L9.64124 4.91486C10.0005 5.00419 10.3707 5.08907 10.7478 5.17495L11.458 2.32916L13.1898 2.76102L12.4939 5.55104C12.7538 5.61035 13.0146 5.66997 13.2736 5.73084C13.478 5.77887 13.6814 5.8277 13.8823 5.87776L14.5733 3.10601L16.3061 3.53786L15.5964 6.38464C17.7843 7.13829 19.3843 8.26802 19.07 10.3695L18.2788 10.2512C18.3968 9.46207 18.1686 8.90381 17.7036 8.43504C17.1988 7.92622 16.3906 7.50434 15.3358 7.14103L14.6428 6.90231ZM10.729 12.8037C10.7295 12.8038 10.73 12.804 10.7305 12.8041C10.8483 12.8334 10.992 12.8657 11.1547 12.9022C12.6171 13.2304 15.6141 13.9029 15.1107 15.9214C14.6194 17.8957 11.5292 17.0795 10.1153 16.706C9.99605 16.6745 9.88873 16.6462 9.7959 16.6229C9.78968 16.6214 9.78354 16.6198 9.77745 16.6183L10.729 12.8037ZM15.887 16.1146C16.0894 15.3027 15.8943 14.5947 15.4577 14.0361C15.0502 13.5148 14.4611 13.1567 13.9009 12.9025C13.0002 12.4937 11.9284 12.2545 11.2876 12.1114C11.141 12.0787 11.017 12.051 10.9227 12.0275L10.1465 11.8338L8.80741 17.2017L9.58465 17.3947C9.66724 17.4153 9.769 17.4422 9.88658 17.4734C10.5203 17.6416 11.6135 17.9316 12.6422 17.9851C13.2552 18.0171 13.9387 17.9732 14.5365 17.7125C15.1758 17.4336 15.6876 16.9157 15.887 16.1146ZM16.4229 10.5322C16.2417 11.2582 15.8007 11.7518 15.2275 12.0304C14.6927 12.2903 14.0892 12.3424 13.5598 12.3229C12.6761 12.2904 11.7399 12.039 11.2153 11.8982C11.119 11.8723 11.0365 11.8502 10.9708 11.8338L10.1945 11.6403L11.4444 6.62808L12.2205 6.82153C12.2936 6.83974 12.3924 6.86144 12.5109 6.88747C13.0415 7.00402 13.9666 7.20721 14.736 7.57041C15.2169 7.79739 15.7317 8.126 16.0836 8.61711C16.4608 9.1434 16.6062 9.79646 16.4229 10.5322ZM11.1643 11.0575C11.2458 11.0778 11.3414 11.1034 11.4486 11.132C12.6274 11.4466 15.1988 12.1328 15.6467 10.3384C16.1041 8.50309 13.6049 7.94984 12.3844 7.67964C12.2471 7.64925 12.126 7.62244 12.027 7.59778L11.1643 11.0575Z" fill="#0898A0"/>
</svg>
