<svg width="18" height="17" viewBox="0 0 18 17" fill="none" xmlns="http://www.w3.org/2000/svg">
<path d="M2.58248 16.8369H15.4175C17.1295 16.8369 18 15.9669 18 14.3121V3.35228C18 1.70689 17.1295 0.836914 15.4175 0.836914H2.58248C0.880172 0.836914 0 1.68798 0 3.35228V14.3121C0 15.9764 0.880172 16.8369 2.58248 16.8369ZM2.53412 15.9197C1.48952 15.9197 0.928533 15.3806 0.928533 14.3405V6.32155C0.928533 5.28136 1.48952 4.74235 2.53412 4.74235H15.4562C16.4815 4.74235 17.0715 5.28136 17.0715 6.32155V14.3405C17.0715 15.3806 16.4815 15.9197 15.4562 15.9197H2.53412ZM7.16711 7.89129H7.69909C7.96991 7.89129 8.02794 7.83455 8.02794 7.57923V7.04968C8.02794 6.80382 7.96991 6.74708 7.69909 6.74708H7.16711C6.89629 6.74708 6.83826 6.80382 6.83826 7.04968V7.57923C6.83826 7.83455 6.89629 7.89129 7.16711 7.89129ZM10.3009 7.89129H10.8329C11.1037 7.89129 11.1617 7.83455 11.1617 7.57923V7.04968C11.1617 6.80382 11.1037 6.74708 10.8329 6.74708H10.3009C10.0301 6.74708 9.97206 6.80382 9.97206 7.04968V7.57923C9.97206 7.83455 10.0301 7.89129 10.3009 7.89129ZM13.425 7.89129H13.9667C14.2278 7.89129 14.2955 7.83455 14.2955 7.57923V7.04968C14.2955 6.80382 14.2278 6.74708 13.9667 6.74708H13.425C13.1639 6.74708 13.0962 6.80382 13.0962 7.04968V7.57923C13.0962 7.83455 13.1639 7.89129 13.425 7.89129ZM4.03332 10.9078H4.57496C4.83611 10.9078 4.90381 10.8511 4.90381 10.5958V10.0662C4.90381 9.81091 4.83611 9.75417 4.57496 9.75417H4.03332C3.77217 9.75417 3.70446 9.81091 3.70446 10.0662V10.5958C3.70446 10.8511 3.77217 10.9078 4.03332 10.9078ZM7.16711 10.9078H7.69909C7.96991 10.9078 8.02794 10.8511 8.02794 10.5958V10.0662C8.02794 9.81091 7.96991 9.75417 7.69909 9.75417H7.16711C6.89629 9.75417 6.83826 9.81091 6.83826 10.0662V10.5958C6.83826 10.8511 6.89629 10.9078 7.16711 10.9078ZM10.3009 10.9078H10.8329C11.1037 10.9078 11.1617 10.8511 11.1617 10.5958V10.0662C11.1617 9.81091 11.1037 9.75417 10.8329 9.75417H10.3009C10.0301 9.75417 9.97206 9.81091 9.97206 10.0662V10.5958C9.97206 10.8511 10.0301 10.9078 10.3009 10.9078ZM13.425 10.9078H13.9667C14.2278 10.9078 14.2955 10.8511 14.2955 10.5958V10.0662C14.2955 9.81091 14.2278 9.75417 13.9667 9.75417H13.425C13.1639 9.75417 13.0962 9.81091 13.0962 10.0662V10.5958C13.0962 10.8511 13.1639 10.9078 13.425 10.9078ZM4.03332 13.9149H4.57496C4.83611 13.9149 4.90381 13.8582 4.90381 13.6029V13.0828C4.90381 12.8275 4.83611 12.7707 4.57496 12.7707H4.03332C3.77217 12.7707 3.70446 12.8275 3.70446 13.0828V13.6029C3.70446 13.8582 3.77217 13.9149 4.03332 13.9149ZM7.16711 13.9149H7.69909C7.96991 13.9149 8.02794 13.8582 8.02794 13.6029V13.0828C8.02794 12.8275 7.96991 12.7707 7.69909 12.7707H7.16711C6.89629 12.7707 6.83826 12.8275 6.83826 13.0828V13.6029C6.83826 13.8582 6.89629 13.9149 7.16711 13.9149ZM10.3009 13.9149H10.8329C11.1037 13.9149 11.1617 13.8582 11.1617 13.6029V13.0828C11.1617 12.8275 11.1037 12.7707 10.8329 12.7707H10.3009C10.0301 12.7707 9.97206 12.8275 9.97206 13.0828V13.6029C9.97206 13.8582 10.0301 13.9149 10.3009 13.9149Z" fill="#0898A0"/>
</svg>
