<svg width="720" height="220" viewBox="0 0 720 220" fill="none" xmlns="http://www.w3.org/2000/svg">
<path d="M48.1503 86.2533L46.5715 7.85784H0V213.198H48.1503V132.415C49.3343 69.9375 73.0147 49.6422 136.557 45.6627V4.67427C79.7242 4.67427 58.8065 26.5613 49.729 86.2533H48.1503Z" fill="#71879C" fill-opacity="0.2"/>
<path d="M158.335 213.198H206.486V7.85784H158.335V213.198Z" fill="#71879C" fill-opacity="0.2"/>
<path d="M331.193 219.565C388.816 219.565 422.758 195.688 422.758 155.496C422.758 124.854 403.419 107.344 363.556 98.5896L309.881 87.0492C292.91 83.0697 283.438 74.3149 283.438 63.1724C283.438 46.8566 299.619 36.9079 326.457 36.9079C356.058 36.9079 373.423 51.234 373.423 74.7128H419.6C419.6 28.5511 384.474 1.49071 324.878 1.49071C270.413 1.49071 236.077 26.1634 236.077 64.3662C236.077 95.406 258.573 114.905 295.673 122.466L346.98 133.609C367.898 138.384 375.002 145.149 375.002 157.486C375.002 174.199 358.426 184.148 331.588 184.148C298.83 184.148 280.28 170.618 278.702 146.343H231.341C232.919 193.301 268.44 219.565 331.193 219.565Z" fill="#71879C" fill-opacity="0.2"/>
<path d="M641.139 103.763C641.139 47.2545 602.855 1.49071 540.497 1.49071C477.744 1.49071 436.303 42.8771 436.303 109.732C436.303 182.158 478.533 219.565 542.865 219.565C588.253 219.565 633.245 192.107 639.56 141.568H595.751C590.621 164.649 571.282 181.76 542.865 181.76C508.134 181.76 483.664 159.475 482.48 119.681H641.139V103.763ZM538.524 39.2956C570.492 39.2956 591.41 59.1929 593.778 92.2225H482.48C484.848 57.2032 508.528 39.2956 538.524 39.2956Z" fill="#71879C" fill-opacity="0.2"/>
<path d="M720 31.9553C720 49.3636 706.004 63.4758 688.739 63.4758C671.474 63.4758 657.477 49.3636 657.477 31.9553C657.477 14.547 671.474 0.434814 688.739 0.434814C706.004 0.434814 720 14.547 720 31.9553Z" fill="#71879C" fill-opacity="0.2"/>
</svg>
