<svg width="24" height="25" viewBox="0 0 24 25" fill="none" xmlns="http://www.w3.org/2000/svg">
<path fill-rule="evenodd" clip-rule="evenodd" d="M14.5383 17.9603H5.82422C4.29297 17.9603 3.51953 17.1868 3.51953 15.679V7.32745C3.51953 5.81183 4.29297 5.03839 5.82422 5.03839H18.1836C19.707 5.03839 20.4805 5.81964 20.4805 7.32745V10.8918C20.172 10.7949 19.8506 10.7271 19.5195 10.6916V9.44933H4.48828V15.6243C4.48828 16.5306 4.96484 16.9915 5.83984 16.9915H14.1589C14.252 17.3302 14.3799 17.6544 14.5383 17.9603ZM5.83984 6.00714C4.96484 6.00714 4.48828 6.47589 4.48828 7.37433V7.99933H19.5195V7.37433C19.5195 6.47589 19.0195 6.00714 18.1602 6.00714H5.83984ZM8.69922 14.0306H6.78516C6.33203 14.0306 6.01953 13.7181 6.01953 13.2806V12.3275C6.01953 11.89 6.33203 11.5853 6.78516 11.5853H8.69922C9.16016 11.5853 9.47266 11.89 9.47266 12.3275V13.2806C9.47266 13.7181 9.16016 14.0306 8.69922 14.0306Z" fill="#0898A0"/>
<path fill-rule="evenodd" clip-rule="evenodd" d="M19.2465 16.1534C19.4018 16.2915 19.4795 16.5073 19.4795 16.8008C19.4795 17.0827 19.3644 17.3114 19.1342 17.4869C18.9041 17.6596 18.5977 17.7459 18.215 17.7459C17.8381 17.7459 17.5346 17.6567 17.3044 17.4783C17.0742 17.2971 16.9563 17.0496 16.9505 16.736H16.4024C16.4098 16.8409 16.4256 16.9409 16.4499 17.036C16.5201 17.3118 16.6611 17.5469 16.8728 17.7416C17.1606 18.0034 17.5375 18.1516 18.0035 18.1861V18.9629H18.4265V18.1861C18.9098 18.1516 19.2954 18.0048 19.5831 17.7459C19.8737 17.4869 20.019 17.1532 20.019 16.7447C20.019 16.4109 19.9283 16.1275 19.7471 15.8945C19.5658 15.6614 19.2666 15.483 18.8494 15.3593L17.8439 15.0745C17.5734 14.9997 17.3634 14.8918 17.2138 14.7508C17.067 14.607 16.9937 14.4142 16.9937 14.1725C16.9937 13.8791 17.0973 13.6446 17.3044 13.4691C17.5144 13.2907 17.7935 13.2015 18.1416 13.2015C18.4898 13.2015 18.7732 13.2921 18.9918 13.4734C19.2105 13.6518 19.3313 13.8978 19.3543 14.2114H19.8852C19.8791 14.1065 19.8646 14.0065 19.8417 13.9114C19.7778 13.646 19.6484 13.418 19.4536 13.2274C19.1918 12.9685 18.8494 12.816 18.4265 12.7699V11.9629H18.0035V12.7699C17.5432 12.7987 17.1706 12.9483 16.8858 13.2188C16.6038 13.4863 16.4629 13.823 16.4629 14.2286C16.4629 14.5566 16.5607 14.8299 16.7563 15.0486C16.952 15.2673 17.2555 15.4384 17.6669 15.5622L18.4869 15.7909C18.8408 15.8916 19.094 16.0124 19.2465 16.1534ZM18.4048 16.0794C18.4046 16.0794 18.405 16.0795 18.4048 16.0794L17.5805 15.8495C17.1393 15.7168 16.7785 15.5233 16.5327 15.2486C16.282 14.9684 16.1629 14.6211 16.1629 14.2286C16.1629 13.7447 16.3347 13.3281 16.6792 13.0012M18.4048 16.0794C18.7428 16.1757 18.9422 16.2807 19.0428 16.3737L19.0471 16.3776C19.1155 16.4384 19.1795 16.5566 19.1795 16.8008C19.1795 16.9859 19.1107 17.1273 18.9533 17.2477C18.7899 17.3698 18.5534 17.4459 18.215 17.4459C17.8855 17.4459 17.6529 17.3685 17.4891 17.2419C17.3358 17.1208 17.2547 16.961 17.2505 16.7305L17.2451 16.436H16.0806L16.1032 16.7571C16.137 17.2372 16.325 17.6455 16.6698 17.9624L16.6709 17.9635C16.9541 18.2211 17.3026 18.3803 17.7035 18.451V19.2629H18.7265V18.4526C19.1398 18.3836 19.497 18.2267 19.7832 17.9694C20.1408 17.6505 20.319 17.2337 20.319 16.7447C20.319 16.3533 20.2114 16.0028 19.9839 15.7103C19.7498 15.4094 19.3849 15.2052 18.9347 15.0717L17.9256 14.7858L17.9238 14.7853C17.6858 14.7195 17.5253 14.6313 17.4218 14.5346C17.3438 14.4572 17.2937 14.3474 17.2937 14.1725C17.2937 13.9591 17.3644 13.8114 17.4983 13.698C17.6411 13.5767 17.8454 13.5015 18.1416 13.5015C18.4362 13.5015 18.6469 13.5771 18.8004 13.7043L18.8022 13.7058C18.9493 13.8259 19.0374 13.9916 19.0552 14.2333L19.0756 14.5114H20.2031L20.1847 14.194C20.1577 13.7287 19.9859 13.3287 19.664 13.0135C19.4076 12.7601 19.0913 12.5964 18.7265 12.5154V11.6629H17.7035V12.5031C17.3055 12.572 16.9596 12.735 16.6792 13.0012" fill="#0898A0"/>
<path d="M20.0189 16.7445C20.0189 17.153 19.8736 17.4868 19.583 17.7457C19.2953 18.0046 18.9097 18.1514 18.4264 18.1859V18.9627H18.0035V18.1859C17.5374 18.1514 17.1605 18.0032 16.8728 17.7414C16.5879 17.4796 16.4311 17.1444 16.4023 16.7358H16.9504C16.9562 17.0494 17.0741 17.2969 17.3043 17.4781C17.5345 17.6565 17.838 17.7457 18.2149 17.7457C18.5976 17.7457 18.904 17.6594 19.1342 17.4868C19.3643 17.3112 19.4794 17.0825 19.4794 16.8006C19.4794 16.5071 19.4017 16.2913 19.2464 16.1532C19.0939 16.0122 18.8407 15.8914 18.4868 15.7907L17.6668 15.562C17.2554 15.4383 16.9519 15.2671 16.7562 15.0484C16.5606 14.8297 16.4628 14.5564 16.4628 14.2284C16.4628 13.8228 16.6037 13.4861 16.8857 13.2186C17.1705 12.9481 17.5431 12.7985 18.0035 12.7697V11.9627H18.4264V12.7697C18.8493 12.8158 19.1917 12.9683 19.4535 13.2272C19.7182 13.4861 19.8621 13.8141 19.8851 14.2112H19.3543C19.3312 13.8976 19.2104 13.6516 18.9917 13.4732C18.7731 13.2919 18.4897 13.2013 18.1416 13.2013C17.7934 13.2013 17.5143 13.2905 17.3043 13.4689C17.0972 13.6444 16.9936 13.8789 16.9936 14.1723C16.9936 14.414 17.067 14.6068 17.2137 14.7506C17.3633 14.8916 17.5733 14.9995 17.8438 15.0743L18.8493 15.3591C19.2665 15.4828 19.5657 15.6612 19.747 15.8943C19.9282 16.1273 20.0189 16.4107 20.0189 16.7445Z" fill="#0898A0"/>
</svg>
